<?xml version="1.0" standalone="no"?>
<!DOCTYPE svg PUBLIC "-//W3C//DTD SVG 20010904//EN"
 "http://www.w3.org/TR/2001/REC-SVG-20010904/DTD/svg10.dtd">
<svg version="1.0" xmlns="http://www.w3.org/2000/svg"
 width="541.000000pt" height="544.000000pt" viewBox="0 0 541.000000 544.000000"
 preserveAspectRatio="xMidYMid meet">
<metadata>
Created by potrace 1.16, written by Peter Selinger 2001-2019
</metadata>
<g transform="translate(0.000000,544.000000) scale(0.100000,-0.100000)"
fill="#000000" stroke="none">
<path d="M1723 4284 c-543 -537 -1089 -1077 -1213 -1200 l-225 -224 77 -77 78
-78 -76 -76 -75 -75 883 -869 c809 -796 1131 -1112 1434 -1408 l110 -108 405
398 c223 219 768 755 1212 1192 l806 793 -72 80 c-40 44 -72 82 -72 86 0 4 32
36 70 72 39 36 70 68 70 71 0 6 -2413 2399 -2420 2399 -2 0 -449 -439 -992
-976z m1834 67 c439 -434 954 -946 1146 -1138 l347 -348 -53 -53 -54 -54 -370
364 c-204 200 -702 689 -1107 1088 -405 399 -741 727 -747 729 -12 4 24 39
-1048 -1014 -1093 -1074 -1180 -1157 -1200 -1146 -9 5 -34 25 -56 45 l-40 36
1165 1159 1164 1159 27 -19 c15 -10 387 -374 826 -808z m-124 -190 c392 -385
881 -868 1087 -1075 l375 -376 -561 -558 c-308 -306 -800 -792 -1091 -1080
l-531 -522 -913 904 c-503 497 -991 985 -1086 1084 l-172 180 607 605 c528
526 1561 1537 1570 1537 2 0 324 -315 715 -699z m-1842 -2583 c599 -595 1099
-1088 1110 -1096 19 -13 47 13 502 465 265 263 764 756 1109 1097 l628 618 27
-18 c16 -9 42 -32 59 -51 l30 -33 -460 -458 c-660 -657 -1395 -1380 -1654
-1629 l-224 -213 -31 26 c-56 46 -581 558 -1460 1423 l-857 845 52 53 c29 29
58 53 66 53 7 0 504 -487 1103 -1082z"/>
<path d="M1800 3686 c0 -47 3 -54 23 -60 12 -3 203 -6 425 -6 l402 0 0 -1009
c0 -554 3 -1036 6 -1070 l7 -61 52 0 52 0 7 61 c3 34 6 516 6 1070 l0 1009
399 0 c219 0 413 3 430 6 30 6 31 8 31 60 l0 54 -920 0 -920 0 0 -54z"/>
</g>
</svg>
