<svg version="1.0" xmlns="http://www.w3.org/2000/svg" width="1174.667" height="546.667" viewBox="0 0 881 410"><path d="M643 42.3c-15.1 15-54.9 54.4-88.4 87.6l-61 60.2 5.7 5.7 5.7 5.7-5.6 5.6-5.5 5.5 88.2 87.3c48.5 47.9 88.6 87 89 86.9.5-.2 40.5-39.4 88.9-87.3l88-86.9-5.7-5.9-5.8-5.9 5.7-5.2 5.8-5.3-49.3-48.9c-27-26.9-66.8-66.3-88.2-87.6C689 32.4 671.2 15 671 15c-.3 0-12.9 12.3-28 27.3zM760 108l82.5 81.9-4.3 4.3-4.2 4.3-15.3-15.1C723.4 89.1 671.5 38 670.8 38c-.4 0-37 35.9-81.4 79.7-44.3 43.9-80.9 79.8-81.4 79.8-.4 0-2.5-1.6-4.7-3.6l-4.1-3.7 47.2-46.8c25.9-25.8 64.4-64.1 85.5-85.1l38.5-38.2 3.5 3c2 1.6 40.7 39.8 86.1 84.9zm-8.8 13.9c43.6 43.1 79.4 78.6 79.6 79 .1.4-35.8 36.4-79.9 79.9L670.8 360l-79.9-79.2c-44-43.5-79.8-79.5-79.7-80 .5-1.5 159.2-157.8 160-157.6.4.2 36.4 35.6 80 78.7zM521 216.6c6.9 6.9 43.4 43.2 81.2 80.6l68.8 68 81.1-80.3c44.6-44.2 81.4-80.5 81.8-80.7.3-.1 2.5 1.7 4.8 4l4.1 4.3-85.5 84.5c-47 46.5-85.9 84.5-86.4 84.5s-39.3-38-86.4-84.5L499 212.6l4.2-4.3c2.3-2.4 4.5-4.3 4.8-4.3.3 0 6.1 5.7 13 12.6z"/><path d="M604 130v4l31.3.2 31.2.3.3 78.2.2 78.3h8l.2-78.3.3-78.2 31.3-.3 31.2-.2v-8H604v4zM26 137.5v3.5h58v142h8V141h57v-7H26v3.5zM159 208.5V283h8l.2-68.6.3-68.6 54.7 68.6 54.7 68.6H287V134h-8v138.2l-16.8-20.9c-9.2-11.4-29.4-36.3-44.7-55.3-15.4-19-32.9-40.7-38.8-48.3L167.8 134H159v74.5zM308 208.5V283h8l.2-67.8.3-67.7 33.7 67.7 33.7 67.8h7.8l33.6-67.8 33.6-67.7.1 67.7V283h8V134h-10.1l-34.2 69c-18.8 37.9-34.5 68.9-34.8 69-.3 0-16-31.1-34.8-69l-34.3-69H308v74.5z"/></svg>